<svg width="1440" height="609" viewBox="0 0 1440 609" fill="none" xmlns="http://www.w3.org/2000/svg">
    <path fill-rule="evenodd" clip-rule="evenodd" d="M1526 107.467L-86 107.467L-86 0L1526 0V107.467Z" fill="#EFE3CA"/>
    <path fill-rule="evenodd" clip-rule="evenodd" d="M719.994 134.334C556.108 134.334 398.934 199.438 283.049 315.323C167.164 431.208 102.06 588.381 102.06 752.268H-5.40625C-5.40625 559.88 71.0196 375.371 207.059 239.332C343.097 103.293 527.606 26.8677 719.994 26.8677C912.382 26.8677 1096.89 103.294 1232.93 239.332C1368.97 375.371 1445.39 559.88 1445.39 752.268H1337.93C1337.93 588.382 1272.82 431.208 1156.94 315.323C1041.05 199.438 883.88 134.334 719.994 134.334Z" fill="#EFE3CA"/>
    <path fill-rule="evenodd" clip-rule="evenodd" d="M719.997 349.27C613.115 349.27 510.61 391.729 435.033 467.306C359.456 542.883 316.997 645.388 316.997 752.27L209.53 752.27C209.53 616.886 263.311 487.047 359.043 391.316C454.774 295.585 584.613 241.803 719.997 241.803C855.381 241.803 985.22 295.585 1080.95 391.316C1176.68 487.047 1230.46 616.886 1230.46 752.27H1123C1123 645.388 1080.54 542.883 1004.96 467.306C929.384 391.729 826.879 349.27 719.997 349.27Z" fill="#EFE3CA"/>
    <path fill-rule="evenodd" clip-rule="evenodd" d="M511.026 543.299C566.449 487.876 641.619 456.739 719.999 456.739C798.379 456.739 873.549 487.876 928.973 543.299C984.396 598.722 1015.53 673.892 1015.53 752.272H908.066C908.066 702.394 888.252 654.559 852.982 619.289C817.713 584.02 769.877 564.206 719.999 564.206C670.121 564.206 622.285 584.02 587.016 619.289C551.747 654.558 531.932 702.394 531.932 752.272L424.466 752.272C424.466 673.892 455.602 598.722 511.026 543.299Z" fill="#EFE3CA"/>
</svg>
