<svg width="729" height="74" viewBox="0 0 729 74" fill="none" xmlns="http://www.w3.org/2000/svg">
<mask id="path-1-inside-1_1_22" fill="white">
<path d="M649.789 0.450861C674.287 -3.39421 706.336 29.506 727.628 55.7854C729.937 58.6352 728.91 65.9704 727.628 67.8209H649.789V0.450861Z"/>
</mask>
<path d="M649.789 0.450861C674.287 -3.39421 706.336 29.506 727.628 55.7854C729.937 58.6352 728.91 65.9704 727.628 67.8209H649.789V0.450861Z" stroke="#EFE3CA" stroke-width="16" stroke-dasharray="16 16" mask="url(#path-1-inside-1_1_22)"/>
<mask id="path-2-inside-2_1_22" fill="white">
<path d="M79 0.309748C54.5673 -3.5536 22.6045 29.5029 1.36938 55.9073C-0.933365 58.7706 0.0909271 66.1407 1.36938 68H79V0.309748Z"/>
</mask>
<path d="M79 0.309748C54.5673 -3.5536 22.6045 29.5029 1.36938 55.9073C-0.933365 58.7706 0.0909271 66.1407 1.36938 68H79V0.309748Z" stroke="#EFE3CA" stroke-width="16" stroke-dasharray="16 16" mask="url(#path-2-inside-2_1_22)"/>
<rect x="491" y="3" width="149" height="62" stroke="#EFE3CA" stroke-width="6" stroke-dasharray="16 16"/>
<rect x="449" width="32" height="68" fill="#EFE3CA"/>
<rect x="290" y="3" width="149" height="62" stroke="#EFE3CA" stroke-width="6" stroke-dasharray="16 16"/>
<rect x="89" y="3" width="149" height="62" stroke="#EFE3CA" stroke-width="6" stroke-dasharray="16 16"/>
<rect x="248" width="32" height="68" fill="#EFE3CA"/>
<path d="M104.508 47V20.4H113.818L118.416 43.58H119.1L123.698 20.4H133.008V47H128.144V24.086H127.46L122.9 47H114.616L110.056 24.086H109.372V47H104.508ZM136.878 47V20.4H153.978V24.96H141.894V31.306H152.914V35.866H141.894V42.44H154.206V47H136.878ZM162.935 47V24.96H155.183V20.4H175.703V24.96H167.951V47H162.935ZM177.979 47V20.4H189.531C191.203 20.4 192.659 20.6913 193.901 21.274C195.142 21.8567 196.105 22.68 196.789 23.744C197.473 24.808 197.815 26.062 197.815 27.506V27.962C197.815 29.558 197.435 30.85 196.675 31.838C195.915 32.826 194.977 33.548 193.863 34.004V34.688C194.876 34.7387 195.661 35.0933 196.219 35.752C196.776 36.3853 197.055 37.234 197.055 38.298V47H192.039V39.02C192.039 38.412 191.874 37.918 191.545 37.538C191.241 37.158 190.721 36.968 189.987 36.968H182.995V47H177.979ZM182.995 32.408H188.999C190.189 32.408 191.114 32.0913 191.773 31.458C192.457 30.7993 192.799 29.938 192.799 28.874V28.494C192.799 27.43 192.469 26.5813 191.811 25.948C191.152 25.2893 190.215 24.96 188.999 24.96H182.995V32.408ZM211.184 47.532C207.84 47.532 205.18 46.62 203.204 44.796C201.228 42.9467 200.24 40.312 200.24 36.892V30.508C200.24 27.088 201.228 24.466 203.204 22.642C205.18 20.7927 207.84 19.868 211.184 19.868C214.528 19.868 217.188 20.7927 219.164 22.642C221.14 24.466 222.128 27.088 222.128 30.508V36.892C222.128 40.312 221.14 42.9467 219.164 44.796C217.188 46.62 214.528 47.532 211.184 47.532ZM211.184 43.048C213.059 43.048 214.516 42.5033 215.554 41.414C216.593 40.3247 217.112 38.868 217.112 37.044V30.356C217.112 28.532 216.593 27.0753 215.554 25.986C214.516 24.8967 213.059 24.352 211.184 24.352C209.335 24.352 207.878 24.8967 206.814 25.986C205.776 27.0753 205.256 28.532 205.256 30.356V37.044C205.256 38.868 205.776 40.3247 206.814 41.414C207.878 42.5033 209.335 43.048 211.184 43.048Z" fill="#EFE3CA"/>
<path d="M331.508 47V20.4H341.046L346.328 43.58H347.012V20.4H351.952V47H342.414L337.132 23.82H336.448V47H331.508ZM366.161 47.532C362.817 47.532 360.157 46.62 358.181 44.796C356.205 42.9467 355.217 40.312 355.217 36.892V30.508C355.217 27.088 356.205 24.466 358.181 22.642C360.157 20.7927 362.817 19.868 366.161 19.868C369.505 19.868 372.165 20.7927 374.141 22.642C376.117 24.466 377.105 27.088 377.105 30.508V36.892C377.105 40.312 376.117 42.9467 374.141 44.796C372.165 46.62 369.505 47.532 366.161 47.532ZM366.161 43.048C368.036 43.048 369.492 42.5033 370.531 41.414C371.57 40.3247 372.089 38.868 372.089 37.044V30.356C372.089 28.532 371.57 27.0753 370.531 25.986C369.492 24.8967 368.036 24.352 366.161 24.352C364.312 24.352 362.855 24.8967 361.791 25.986C360.752 27.0753 360.233 28.532 360.233 30.356V37.044C360.233 38.868 360.752 40.3247 361.791 41.414C362.855 42.5033 364.312 43.048 366.161 43.048ZM385.445 47V24.96H377.693V20.4H398.213V24.96H390.461V47H385.445Z" fill="#EFE3CA"/>
<path d="M509.508 47V20.4H526.228V24.96H514.524V31.382H525.316V35.942H514.524V47H509.508ZM538.78 47.532C535.436 47.532 532.776 46.62 530.8 44.796C528.824 42.9467 527.836 40.312 527.836 36.892V30.508C527.836 27.088 528.824 24.466 530.8 22.642C532.776 20.7927 535.436 19.868 538.78 19.868C542.124 19.868 544.784 20.7927 546.76 22.642C548.736 24.466 549.724 27.088 549.724 30.508V36.892C549.724 40.312 548.736 42.9467 546.76 44.796C544.784 46.62 542.124 47.532 538.78 47.532ZM538.78 43.048C540.655 43.048 542.112 42.5033 543.15 41.414C544.189 40.3247 544.708 38.868 544.708 37.044V30.356C544.708 28.532 544.189 27.0753 543.15 25.986C542.112 24.8967 540.655 24.352 538.78 24.352C536.931 24.352 535.474 24.8967 534.41 25.986C533.372 27.0753 532.852 28.532 532.852 30.356V37.044C532.852 38.868 533.372 40.3247 534.41 41.414C535.474 42.5033 536.931 43.048 538.78 43.048ZM563.244 47.532C561.065 47.532 559.191 47.1393 557.62 46.354C556.075 45.5433 554.884 44.4033 554.048 42.934C553.237 41.4393 552.832 39.6787 552.832 37.652V20.4H557.848V37.804C557.848 39.4253 558.304 40.7047 559.216 41.642C560.153 42.5793 561.496 43.048 563.244 43.048C564.992 43.048 566.322 42.5793 567.234 41.642C568.171 40.7047 568.64 39.4253 568.64 37.804V20.4H573.656V37.652C573.656 39.6787 573.238 41.4393 572.402 42.934C571.591 44.4033 570.401 45.5433 568.83 46.354C567.285 47.1393 565.423 47.532 563.244 47.532ZM577.375 47V20.4H586.913L592.195 43.58H592.879V20.4H597.819V47H588.281L582.999 23.82H582.315V47H577.375ZM601.692 47V20.4H610.812C614.384 20.4 617.095 21.312 618.944 23.136C620.819 24.9347 621.756 27.62 621.756 31.192V36.208C621.756 39.78 620.819 42.478 618.944 44.302C617.095 46.1007 614.384 47 610.812 47H601.692ZM606.708 42.44H610.888C612.915 42.44 614.397 41.908 615.334 40.844C616.271 39.78 616.74 38.2853 616.74 36.36V31.04C616.74 29.0893 616.271 27.5947 615.334 26.556C614.397 25.492 612.915 24.96 610.888 24.96H606.708V42.44Z" fill="#EFE3CA"/>
</svg>
