<svg width="96" height="96" viewBox="0 0 96 96" fill="none" xmlns="http://www.w3.org/2000/svg">
<rect width="96" height="96" rx="48" fill="#0B4F6C"/>
<path fill-rule="evenodd" clip-rule="evenodd" d="M76.0438 38.5055L20 38.5055V34.7693L76.0438 34.7693V38.5055Z" fill="#EFE3CA"/>
<path fill-rule="evenodd" clip-rule="evenodd" d="M48.022 39.4396C42.3242 39.4396 36.8598 41.7031 32.8309 45.732C28.8019 49.7609 26.5385 55.2253 26.5385 60.9231H22.8022C22.8022 54.2344 25.4593 47.8197 30.1889 43.0901C34.9186 38.3604 41.3333 35.7034 48.022 35.7034C54.7107 35.7034 61.1254 38.3604 65.855 43.0901C70.5846 47.8197 73.2417 54.2344 73.2417 60.9231H69.5054C69.5054 55.2253 67.242 49.7609 63.2131 45.732C59.1842 41.7031 53.7197 39.4396 48.022 39.4396Z" fill="#EFE3CA"/>
<path fill-rule="evenodd" clip-rule="evenodd" d="M48.0216 46.912C44.3057 46.912 40.7419 48.3882 38.1144 51.0157C35.4868 53.6433 34.0107 57.207 34.0107 60.9229L30.2744 60.9229C30.2744 56.2161 32.1442 51.702 35.4724 48.3738C38.8007 45.0456 43.3147 43.1758 48.0216 43.1758C52.7284 43.1758 57.2425 45.0456 60.5707 48.3738C63.899 51.702 65.7687 56.2161 65.7687 60.9229H62.0325C62.0325 57.207 60.5563 53.6433 57.9288 51.0157C55.3012 48.3882 51.7375 46.912 48.0216 46.912Z" fill="#EFE3CA"/>
<path fill-rule="evenodd" clip-rule="evenodd" d="M40.7565 53.6577C42.6834 51.7308 45.2968 50.6483 48.0219 50.6483C50.7469 50.6483 53.3603 51.7308 55.2872 53.6577C57.2141 55.5846 58.2967 58.1981 58.2967 60.9231H54.5604C54.5604 59.189 53.8715 57.5259 52.6453 56.2997C51.4191 55.0735 49.756 54.3846 48.0219 54.3846C46.2877 54.3846 44.6246 55.0735 43.3984 56.2997C42.1722 57.5259 41.4834 59.189 41.4834 60.9231L37.7471 60.9231C37.7471 58.1981 38.8296 55.5846 40.7565 53.6577Z" fill="#EFE3CA"/>
</svg>
