<svg width="372" height="112" viewBox="0 0 372 112" fill="none" xmlns="http://www.w3.org/2000/svg">
<g clip-path="url(#clip0_4039_1414)">
<path d="M-187 4L-171.369 7.83917C-155.739 11.7095 -124.477 19.3876 -93.2865 19.6682C-62.0611 19.9182 -30.94 12.7394 0.285965 19.8558C48.689 32.7152 49.2917 45.7209 96.5 29C120.5 20.4993 138.5 9.33908 157 7.83908C175.5 6.33908 194 12 213 16C232 20 247.523 19.3876 278.714 19.6682C309.939 19.9182 341.06 12.7394 372.286 19.8558C420.689 32.7152 441.413 23.2283 466 10.4313V111.994H289.472H201.208C200.009 111.994 185 112.02 185 111.964C185 111.429 157 111.994 157 111.994H94H-82.5281H-170.792C-171.991 111.994 -187 112.02 -187 111.964V110.36V101.359V4Z" fill="#9EBD9F"/>
<path d="M375.729 63.8814C344.503 59.98 299.5 57.2107 273 51C246.5 44.7893 201 37 168 37C127.689 37 93.999 55.8115 78.369 60.4752C62.739 65.1389 34.92 67.8169 3.72896 63.8814C-27.4971 59.98 -62.0611 49.4962 -93.2865 40.17C-124.477 30.8768 -155.739 29.422 -171.369 28.7272L-187 28V112H-179.618H94H185H192.382H466V55.7795L450.369 60.4752C434.739 65.1389 406.92 67.8169 375.729 63.8814Z" fill="#5A8C86"/>
<path d="M-171.369 66.9877L-187 63V112H-179.618H185H192.382H466V98.1459L450.369 92.4675C434.739 86.7563 403.478 75.4026 372.286 73.5432C341.06 71.6848 309.939 79.3217 278.714 79.1531C247.523 78.9844 227.631 73.5218 212 69.5004C196.369 65.479 184 64.5 175 65.5C156.09 67.6011 145.5 72.5 131 80L130.068 80.4823C116.233 87.6413 110.111 90.8088 95.5 92.4675C82 94 77.13 94.2111 61.5 88.5C45.87 82.7889 31.478 75.4026 0.285965 73.5432C-30.94 71.6848 -62.0611 79.3217 -93.2865 79.1531C-124.477 78.9844 -155.739 71.0091 -171.369 66.9877Z" fill="#0B4F6C"/>
</g>
<defs>
<clipPath id="clip0_4039_1414">
<rect width="372" height="112" fill="white"/>
</clipPath>
</defs>
</svg>
